<svg xmlns="http://www.w3.org/2000/svg" viewBox="0 0 148.95 118.34"><defs><style>.cls-1{fill:#b2e2f6;}</style></defs><g id="Layer_2" data-name="Layer 2"><g id="Layer_1-2" data-name="Layer 1"><path class="cls-1" d="M31.48,68.54a45.21,45.21,0,0,1,2.9-6.9c1.77-3.67,1-5-3.17-5.07a16,16,0,0,0-3.76.54c-3.71.86-7.38,1.86-11.1,2.64a7.31,7.31,0,0,1-2.72-.5c.57-.79,1-1.91,1.74-2.31,3.16-1.61,6.39-3.11,9.67-4.45,7-2.89,15.64-3.14,19-11.88a2.93,2.93,0,0,1,1.83-1.28,12.34,12.34,0,0,1,2.73-.16c-.35.78-.64,1.59-1.06,2.32-.7,1.19-1.49,2.33-2.24,3.48,1.41.21,3,.91,4.21.56,8.76-2.48,15.37.85,21,7.25a9.23,9.23,0,0,0,1.8,1.4c2.68,1.8,2.36,3.08-.21,5-1.64,1.21-3.32,3.55-3.43,5.46-.33,6.18-2.15,10.17-9.33,9.07a1.7,1.7,0,0,0-1.41.44c-3.32,4.87-6.82,2.43-10.41.39-2.42-1.37-5.43-2-7.35-3.88-3-2.87,1.18-5.29,1.38-8a9,9,0,0,0-.69-2.72c-.93.58-2.27,1-2.71,1.78-1.5,2.86-2.54,6-4,8.83C32.28,74.21,31.63,76.79,36,80c8.18,6,10,18,5.15,26.9A22.22,22.22,0,0,1,14.9,117.23C4.48,113.66-1.39,103.6.28,92.5,1.71,83,11.47,73.78,22.68,74.93,29.66,75,29.57,75,31.48,68.54ZM17.42,111.69a16.11,16.11,0,0,0,18.36-7.56,15.55,15.55,0,0,0-2.66-18.89,19.72,19.72,0,0,0-3.13-2c-.69,1.25-1.87,2.47-2,3.77a44.37,44.37,0,0,0,.27,8.14c.39,3.81-.85,6.56-4.69,7.55-3.3.84-6.25-.05-7.69-3.29s-.77-6.32,2.4-8.71A37.53,37.53,0,0,0,24.08,85c.7-.81,1.36-2.87,1.06-3.11a6.85,6.85,0,0,0-3.91-1.55c-8.43.17-15.1,7.32-15.13,16A15.59,15.59,0,0,0,17.42,111.69Z"/><path class="cls-1" d="M92.2,55.14c.58,7.4.71,7.49,7.94,5.9.34-.08.82.5,1.23.78-4.82,4,.09,7.9.09,11.85l-.25-.2,7.9,15.58-.33-.2c8.44.5,9.89-1.18,8.84-10.21l-2.71-9.16L129,62.68l1.11-1.09c.1-4,.79-8.07.18-11.94-1.14-7.23-2.85-14.4-4.68-21.49-1.94-7.49-9.55-10-14.41-4.75-1.23,1.32-2.35,3.7-2.05,5.33,1.78,9.89-2.75,16.18-11,20.63Q95.18,52.25,92.2,55.14Z"/><path class="cls-1" d="M101.46,73.67c-5.07.3-10.16.49-15.21,1-1,.09-1.87,1.29-2.79,2,.78,1,1.36,2.71,2.36,3,4.5,1.35,5,4.82,4.63,8.47-.56,6.51-9.21,12.82-15.57,11.41-3.58-.79-7-2.3-7.28-6.6-.24-3.68-2.18-4.51-5.42-4.87-2.13-.24-4.89-1.07-6-2.62-3-4-5.08-1.56-6.31.76a13.17,13.17,0,0,0-1.47,7.88c1.31,7.75,8.77,12.94,16.71,12.3,6.34-.51,12.69-1,19.05-1.42,6-.37,11.64-1.82,16.31-5.69,3.56-2.94,4.27-1.27,5.3,2.19,3.52,11.83,12.45,17.85,24,16.59a21.82,21.82,0,0,0,18.66-26.58c-.3-1.22-.59-2.78-1.45-3.44a5.18,5.18,0,0,0-3.85-.68c-.65.14-1.41,1.79-1.36,2.72.13,2.25,1,4.46,1.05,6.7a15.38,15.38,0,0,1-12.54,15.18,16.09,16.09,0,0,1-18-9.62c-1.32-3.42-2.37-6.83,2.76-8.39,1.23-.38,2.08-2,3.1-3-1.24-.16-2.5-.22-3.71-.5-1.87-.44-3.7-1-5.54-1.54l.33.2a25.79,25.79,0,0,0-3.93,1.75c-3.78,2.49-7.41,5.22-11.26,7.58-.66.41-2.15-.51-3.26-.82,1.55-4.62,1-10.36,6.06-13.18,4.6-2.54,6.52-5.83,4.49-10.91Z"/><path class="cls-1" d="M92.2,55.14q3-2.89,6-5.77a15,15,0,0,1,2.33-2.87c3.09-2.31,3.72-5,2.08-8.49-1.36-3-2.17-6.18-3.39-9.21C96.25,21.51,92.53,20,84.9,22.87c-.69.26-1.42.42-2.13.62l.22-.21c-2.58,6-8.23,7.79-13.78,9.11-3.62.86-7.56.68-11.34.5-3.22-.16-6,.3-6.07,3.93C51.72,40,54.62,40.54,57.25,41c8.33,1.31,16.23.29,23.59-4.05a54.42,54.42,0,0,1,5.45-2.74c.38-.17,1,.08,1.45.14-.16.56-.17,1.48-.51,1.62-4.4,1.85-1.68,4.7-.86,7,3.84,10.65,4.06,11-6.11,15-7.06,2.79-10.65,6.75-10.07,14.7.39,5.27-.7,10.63-1,16-.16,3.36.89,6.11,4.85,6.48,4.22.39,6.17-2.14,6.58-5.83a86.28,86.28,0,0,0,.61-13c-.18-4.46,1.35-7.31,5.67-8.66,1.45-.45,2.77-1.26,4.18-1.85,2.19-.92,2.36-2,.9-4C90.39,59.7,89.62,57.3,92.2,55.14Z"/><path class="cls-1" d="M114.91,69.48l2.71,9.16a8,8,0,0,1,1.26,1.9c2.25,7.28,2.23,7.27,10.06,6.1,4.27-.63,8.54-1.32,12.83-1.78,4-.43,5.94-2.36,5.54-6.51-1.47-15-.65-13.06-13.51-11.48C127.49,67.64,121.21,68.6,114.91,69.48Z"/><path class="cls-1" d="M82.77,23.49c1.27-4.35,5-4.74,8.42-4.46,3,.24,4.15-1.2,4.93-3.49C98,10,94.84,3.79,89,1.38,83.47-.9,76.42,1.72,74.14,7a2.52,2.52,0,0,0,0,2.1c.25.35,1.32.27,2,.18,2.21-.3,5.28-3.37,6.26.28.59,2.22-1.79,5.24-2.88,7.89-.07.18-.44.23-.63.39-2.74,2.32-2.67,3.66.44,5a14.22,14.22,0,0,0,3.68.5Z"/><path class="cls-1" d="M123.86,11.87c.1-4.9-3.76-10-8.59-11.4C110.16-1,104.47,1,101.92,5.32c-.55.94-.41,2.28-.59,3.44.92-.16,1.84-.33,2.77-.46L109,7.67c0,2.22.33,4.52-.18,6.6-.31,1.23-2.11,2-3,3.19a17.44,17.44,0,0,0-1.63,3.16c1.72.38,3.58,1.37,5.14,1,2.85-.63,5.44-2.46,8.3-3C121.81,17.77,123.77,16,123.86,11.87Z"/><path class="cls-1" d="M23.23,44.37c.42,2.6-.12,5.88,4.27,3.53a18.2,18.2,0,0,1,5.8-1.67c3.38-.53,4.18-2,3-5.25-2.3-6.16-1-11.43,4.8-15.07,3.62-2.25,1.05-4.35-.33-6.14-.28-.37-3.23.4-3.88,1.36-4.5,6.71-8.75,13.6-13,20.48A8.48,8.48,0,0,0,23.23,44.37Z"/><path class="cls-1" d="M120.17,96.32a6.76,6.76,0,0,0,6.91,6.67,6.53,6.53,0,0,0,6.52-7,6.65,6.65,0,0,0-6.4-6.37A7.18,7.18,0,0,0,120.17,96.32Z"/><path class="cls-1" d="M130.09,61.59,129,62.68c3.37,2.13,12.77,2.21,15.26,0,.59-.52,1.06-2.06.72-2.55-.91-1.33-2.12-3.07-3.49-3.36C136.71,55.72,132.67,57.14,130.09,61.59Z"/></g></g></svg>